<mxfile host="app.diagrams.net" agent="Mozilla/5.0 (Windows NT 10.0; Win64; x64) AppleWebKit/537.36 (KHTML, like Gecko) Chrome/130.0.0.0 Safari/537.36" version="25.0.1">
  <diagram name="Trang-1" id="0-TBQEZIHy5ngSD1-Lqs">
    <mxGraphModel dx="1006" dy="606" grid="1" gridSize="10" guides="1" tooltips="1" connect="1" arrows="1" fold="1" page="1" pageScale="1" pageWidth="827" pageHeight="1169" math="0" shadow="0">
      <root>
        <mxCell id="0" />
        <mxCell id="1" parent="0" />
        <mxCell id="W1r5YZ7r5mJsq6_3pl-B-1" value="" style="shape=table;startSize=0;container=1;collapsible=0;childLayout=tableLayout;" vertex="1" parent="1">
          <mxGeometry x="80" y="190" width="1020" height="380" as="geometry" />
        </mxCell>
        <mxCell id="W1r5YZ7r5mJsq6_3pl-B-2" value="" style="shape=tableRow;horizontal=0;startSize=0;swimlaneHead=0;swimlaneBody=0;strokeColor=inherit;top=0;left=0;bottom=0;right=0;collapsible=0;dropTarget=0;fillColor=none;points=[[0,0.5],[1,0.5]];portConstraint=eastwest;" vertex="1" parent="W1r5YZ7r5mJsq6_3pl-B-1">
          <mxGeometry width="1020" height="64" as="geometry" />
        </mxCell>
        <mxCell id="W1r5YZ7r5mJsq6_3pl-B-3" value="&lt;span style=&quot;font-family: &amp;quot;Roboto Mono&amp;quot;, monospace; text-align: start; white-space-collapse: preserve; background-color: rgb(255, 255, 255);&quot;&gt;&lt;font style=&quot;font-size: 16px;&quot;&gt;&lt;b&gt;vấn đề&lt;/b&gt;&lt;/font&gt;&lt;/span&gt;" style="shape=partialRectangle;html=1;whiteSpace=wrap;connectable=0;strokeColor=inherit;overflow=hidden;fillColor=none;top=0;left=0;bottom=0;right=0;pointerEvents=1;" vertex="1" parent="W1r5YZ7r5mJsq6_3pl-B-2">
          <mxGeometry width="341" height="64" as="geometry">
            <mxRectangle width="341" height="64" as="alternateBounds" />
          </mxGeometry>
        </mxCell>
        <mxCell id="W1r5YZ7r5mJsq6_3pl-B-4" value="&lt;br&gt;&lt;b&gt;&lt;span style=&quot;color: rgb(0, 0, 0); font-family: &amp;quot;Roboto Mono&amp;quot;, monospace; font-size: 16px; font-style: normal; font-variant-ligatures: normal; font-variant-caps: normal; letter-spacing: normal; orphans: 2; text-align: start; text-indent: 0px; text-transform: none; widows: 2; word-spacing: 0px; -webkit-text-stroke-width: 0px; white-space: pre-wrap; background-color: rgb(255, 255, 255); text-decoration-thickness: initial; text-decoration-style: initial; text-decoration-color: initial; float: none; display: inline !important;&quot;&gt;cấu trúc dữ liệu&lt;/span&gt;&lt;br&gt;&lt;/b&gt;" style="shape=partialRectangle;html=1;whiteSpace=wrap;connectable=0;strokeColor=inherit;overflow=hidden;fillColor=none;top=0;left=0;bottom=0;right=0;pointerEvents=1;" vertex="1" parent="W1r5YZ7r5mJsq6_3pl-B-2">
          <mxGeometry x="341" width="338" height="64" as="geometry">
            <mxRectangle width="338" height="64" as="alternateBounds" />
          </mxGeometry>
        </mxCell>
        <mxCell id="W1r5YZ7r5mJsq6_3pl-B-5" value="&lt;font style=&quot;font-size: 16px;&quot;&gt;&lt;b&gt;Lý do&lt;/b&gt;&lt;/font&gt;" style="shape=partialRectangle;html=1;whiteSpace=wrap;connectable=0;strokeColor=inherit;overflow=hidden;fillColor=none;top=0;left=0;bottom=0;right=0;pointerEvents=1;" vertex="1" parent="W1r5YZ7r5mJsq6_3pl-B-2">
          <mxGeometry x="679" width="341" height="64" as="geometry">
            <mxRectangle width="341" height="64" as="alternateBounds" />
          </mxGeometry>
        </mxCell>
        <mxCell id="W1r5YZ7r5mJsq6_3pl-B-6" value="" style="shape=tableRow;horizontal=0;startSize=0;swimlaneHead=0;swimlaneBody=0;strokeColor=inherit;top=0;left=0;bottom=0;right=0;collapsible=0;dropTarget=0;fillColor=none;points=[[0,0.5],[1,0.5]];portConstraint=eastwest;" vertex="1" parent="W1r5YZ7r5mJsq6_3pl-B-1">
          <mxGeometry y="64" width="1020" height="62" as="geometry" />
        </mxCell>
        <mxCell id="W1r5YZ7r5mJsq6_3pl-B-7" value="Lưu trữ danh sách sinh viên theo thứ tự nhập vào" style="shape=partialRectangle;html=1;whiteSpace=wrap;connectable=0;strokeColor=inherit;overflow=hidden;fillColor=none;top=0;left=0;bottom=0;right=0;pointerEvents=1;" vertex="1" parent="W1r5YZ7r5mJsq6_3pl-B-6">
          <mxGeometry width="341" height="62" as="geometry">
            <mxRectangle width="341" height="62" as="alternateBounds" />
          </mxGeometry>
        </mxCell>
        <mxCell id="W1r5YZ7r5mJsq6_3pl-B-8" value="Danh sách liên kết (Linked List)" style="shape=partialRectangle;html=1;whiteSpace=wrap;connectable=0;strokeColor=inherit;overflow=hidden;fillColor=none;top=0;left=0;bottom=0;right=0;pointerEvents=1;" vertex="1" parent="W1r5YZ7r5mJsq6_3pl-B-6">
          <mxGeometry x="341" width="338" height="62" as="geometry">
            <mxRectangle width="338" height="62" as="alternateBounds" />
          </mxGeometry>
        </mxCell>
        <mxCell id="W1r5YZ7r5mJsq6_3pl-B-9" value="&lt;div&gt;Dễ dàng thêm phần tử mới ở cuối danh sách mà không cần dịch chuyển dữ liệu (O(1) nếu dùng danh sách liên kết đơn).&lt;/div&gt;&lt;div&gt;Không yêu cầu bộ nhớ liên tiếp như mảng.&lt;/div&gt;" style="shape=partialRectangle;html=1;whiteSpace=wrap;connectable=0;strokeColor=inherit;overflow=hidden;fillColor=none;top=0;left=0;bottom=0;right=0;pointerEvents=1;" vertex="1" parent="W1r5YZ7r5mJsq6_3pl-B-6">
          <mxGeometry x="679" width="341" height="62" as="geometry">
            <mxRectangle width="341" height="62" as="alternateBounds" />
          </mxGeometry>
        </mxCell>
        <mxCell id="W1r5YZ7r5mJsq6_3pl-B-10" value="" style="shape=tableRow;horizontal=0;startSize=0;swimlaneHead=0;swimlaneBody=0;strokeColor=inherit;top=0;left=0;bottom=0;right=0;collapsible=0;dropTarget=0;fillColor=none;points=[[0,0.5],[1,0.5]];portConstraint=eastwest;" vertex="1" parent="W1r5YZ7r5mJsq6_3pl-B-1">
          <mxGeometry y="126" width="1020" height="64" as="geometry" />
        </mxCell>
        <mxCell id="W1r5YZ7r5mJsq6_3pl-B-11" value="Tìm kiếm nhanh tên một sản phẩm trong danh sách hàng triệu sản phẩm" style="shape=partialRectangle;html=1;whiteSpace=wrap;connectable=0;strokeColor=inherit;overflow=hidden;fillColor=none;top=0;left=0;bottom=0;right=0;pointerEvents=1;" vertex="1" parent="W1r5YZ7r5mJsq6_3pl-B-10">
          <mxGeometry width="341" height="64" as="geometry">
            <mxRectangle width="341" height="64" as="alternateBounds" />
          </mxGeometry>
        </mxCell>
        <mxCell id="W1r5YZ7r5mJsq6_3pl-B-12" value="Bảng băm (Hash Table)" style="shape=partialRectangle;html=1;whiteSpace=wrap;connectable=0;strokeColor=inherit;overflow=hidden;fillColor=none;top=0;left=0;bottom=0;right=0;pointerEvents=1;" vertex="1" parent="W1r5YZ7r5mJsq6_3pl-B-10">
          <mxGeometry x="341" width="338" height="64" as="geometry">
            <mxRectangle width="338" height="64" as="alternateBounds" />
          </mxGeometry>
        </mxCell>
        <mxCell id="W1r5YZ7r5mJsq6_3pl-B-13" value="&lt;div&gt;Cho phép tìm kiếm với thời gian trung bình O(1) nhờ ánh xạ trực tiếp từ khóa (tên sản phẩm) tới giá trị (dữ liệu sản phẩm).&lt;/div&gt;&lt;div&gt;Hiệu quả cao với các tập dữ liệu lớn.&lt;/div&gt;" style="shape=partialRectangle;html=1;whiteSpace=wrap;connectable=0;strokeColor=inherit;overflow=hidden;fillColor=none;top=0;left=0;bottom=0;right=0;pointerEvents=1;" vertex="1" parent="W1r5YZ7r5mJsq6_3pl-B-10">
          <mxGeometry x="679" width="341" height="64" as="geometry">
            <mxRectangle width="341" height="64" as="alternateBounds" />
          </mxGeometry>
        </mxCell>
        <mxCell id="W1r5YZ7r5mJsq6_3pl-B-14" value="" style="shape=tableRow;horizontal=0;startSize=0;swimlaneHead=0;swimlaneBody=0;strokeColor=inherit;top=0;left=0;bottom=0;right=0;collapsible=0;dropTarget=0;fillColor=none;points=[[0,0.5],[1,0.5]];portConstraint=eastwest;" vertex="1" parent="W1r5YZ7r5mJsq6_3pl-B-1">
          <mxGeometry y="190" width="1020" height="64" as="geometry" />
        </mxCell>
        <mxCell id="W1r5YZ7r5mJsq6_3pl-B-15" value="Quản lý danh sách các task công việc cần xử lý theo thứ tự ưu tiên" style="shape=partialRectangle;html=1;whiteSpace=wrap;connectable=0;strokeColor=inherit;overflow=hidden;fillColor=none;top=0;left=0;bottom=0;right=0;pointerEvents=1;" vertex="1" parent="W1r5YZ7r5mJsq6_3pl-B-14">
          <mxGeometry width="341" height="64" as="geometry">
            <mxRectangle width="341" height="64" as="alternateBounds" />
          </mxGeometry>
        </mxCell>
        <mxCell id="W1r5YZ7r5mJsq6_3pl-B-16" value="Hàng đợi ưu tiên (Priority Queue)" style="shape=partialRectangle;html=1;whiteSpace=wrap;connectable=0;strokeColor=inherit;overflow=hidden;fillColor=none;top=0;left=0;bottom=0;right=0;pointerEvents=1;" vertex="1" parent="W1r5YZ7r5mJsq6_3pl-B-14">
          <mxGeometry x="341" width="338" height="64" as="geometry">
            <mxRectangle width="338" height="64" as="alternateBounds" />
          </mxGeometry>
        </mxCell>
        <mxCell id="W1r5YZ7r5mJsq6_3pl-B-17" value="&lt;div&gt;Mỗi phần tử được gán một mức ưu tiên và xử lý theo mức ưu tiên cao nhất (không nhất thiết FIFO).&lt;/div&gt;&lt;div&gt;Có thể dễ dàng thực hiện với Heap nhị phân để đạt O(log n) cho thao tác chèn và xóa.&lt;/div&gt;" style="shape=partialRectangle;html=1;whiteSpace=wrap;connectable=0;strokeColor=inherit;overflow=hidden;fillColor=none;top=0;left=0;bottom=0;right=0;pointerEvents=1;" vertex="1" parent="W1r5YZ7r5mJsq6_3pl-B-14">
          <mxGeometry x="679" width="341" height="64" as="geometry">
            <mxRectangle width="341" height="64" as="alternateBounds" />
          </mxGeometry>
        </mxCell>
        <mxCell id="W1r5YZ7r5mJsq6_3pl-B-18" value="" style="shape=tableRow;horizontal=0;startSize=0;swimlaneHead=0;swimlaneBody=0;strokeColor=inherit;top=0;left=0;bottom=0;right=0;collapsible=0;dropTarget=0;fillColor=none;points=[[0,0.5],[1,0.5]];portConstraint=eastwest;" vertex="1" parent="W1r5YZ7r5mJsq6_3pl-B-1">
          <mxGeometry y="254" width="1020" height="62" as="geometry" />
        </mxCell>
        <mxCell id="W1r5YZ7r5mJsq6_3pl-B-19" value="Lưu trữ dữ liệu hệ thống phân cấp như thư mục máy tính" style="shape=partialRectangle;html=1;whiteSpace=wrap;connectable=0;strokeColor=inherit;overflow=hidden;fillColor=none;top=0;left=0;bottom=0;right=0;pointerEvents=1;" vertex="1" parent="W1r5YZ7r5mJsq6_3pl-B-18">
          <mxGeometry width="341" height="62" as="geometry">
            <mxRectangle width="341" height="62" as="alternateBounds" />
          </mxGeometry>
        </mxCell>
        <mxCell id="W1r5YZ7r5mJsq6_3pl-B-20" value="Cây (Tree)" style="shape=partialRectangle;html=1;whiteSpace=wrap;connectable=0;strokeColor=inherit;overflow=hidden;fillColor=none;top=0;left=0;bottom=0;right=0;pointerEvents=1;" vertex="1" parent="W1r5YZ7r5mJsq6_3pl-B-18">
          <mxGeometry x="341" width="338" height="62" as="geometry">
            <mxRectangle width="338" height="62" as="alternateBounds" />
          </mxGeometry>
        </mxCell>
        <mxCell id="W1r5YZ7r5mJsq6_3pl-B-21" value="&lt;div&gt;Cây là cấu trúc phân cấp tự nhiên, dễ dàng biểu diễn quan hệ cha-con trong hệ thống thư mục.&lt;/div&gt;&lt;div&gt;Cho phép duyệt qua các thư mục con bằng các thuật toán duyệt cây (DFS, BFS).&lt;/div&gt;" style="shape=partialRectangle;html=1;whiteSpace=wrap;connectable=0;strokeColor=inherit;overflow=hidden;fillColor=none;top=0;left=0;bottom=0;right=0;pointerEvents=1;" vertex="1" parent="W1r5YZ7r5mJsq6_3pl-B-18">
          <mxGeometry x="679" width="341" height="62" as="geometry">
            <mxRectangle width="341" height="62" as="alternateBounds" />
          </mxGeometry>
        </mxCell>
        <mxCell id="W1r5YZ7r5mJsq6_3pl-B-22" value="" style="shape=tableRow;horizontal=0;startSize=0;swimlaneHead=0;swimlaneBody=0;strokeColor=inherit;top=0;left=0;bottom=0;right=0;collapsible=0;dropTarget=0;fillColor=none;points=[[0,0.5],[1,0.5]];portConstraint=eastwest;" vertex="1" parent="W1r5YZ7r5mJsq6_3pl-B-1">
          <mxGeometry y="316" width="1020" height="64" as="geometry" />
        </mxCell>
        <mxCell id="W1r5YZ7r5mJsq6_3pl-B-23" value="Tìm đường đi ngắn nhất giữa 2 điểm trên bản đồ" style="shape=partialRectangle;html=1;whiteSpace=wrap;connectable=0;strokeColor=inherit;overflow=hidden;fillColor=none;top=0;left=0;bottom=0;right=0;pointerEvents=1;" vertex="1" parent="W1r5YZ7r5mJsq6_3pl-B-22">
          <mxGeometry width="341" height="64" as="geometry">
            <mxRectangle width="341" height="64" as="alternateBounds" />
          </mxGeometry>
        </mxCell>
        <mxCell id="W1r5YZ7r5mJsq6_3pl-B-24" value="&amp;nbsp;Đồ thị (Graph)" style="shape=partialRectangle;html=1;whiteSpace=wrap;connectable=0;strokeColor=inherit;overflow=hidden;fillColor=none;top=0;left=0;bottom=0;right=0;pointerEvents=1;" vertex="1" parent="W1r5YZ7r5mJsq6_3pl-B-22">
          <mxGeometry x="341" width="338" height="64" as="geometry">
            <mxRectangle width="338" height="64" as="alternateBounds" />
          </mxGeometry>
        </mxCell>
        <mxCell id="W1r5YZ7r5mJsq6_3pl-B-25" value="&lt;div&gt;Đồ thị biểu diễn các địa điểm (đỉnh) và đường đi (cạnh).&lt;/div&gt;&lt;div&gt;Các thuật toán như Dijkstra hoặc A* có thể được áp dụng trên đồ thị để tìm đường đi ngắn nhất giữa hai điểm.&lt;/div&gt;" style="shape=partialRectangle;html=1;whiteSpace=wrap;connectable=0;strokeColor=inherit;overflow=hidden;fillColor=none;top=0;left=0;bottom=0;right=0;pointerEvents=1;" vertex="1" parent="W1r5YZ7r5mJsq6_3pl-B-22">
          <mxGeometry x="679" width="341" height="64" as="geometry">
            <mxRectangle width="341" height="64" as="alternateBounds" />
          </mxGeometry>
        </mxCell>
      </root>
    </mxGraphModel>
  </diagram>
</mxfile>
